<mxfile host="app.diagrams.net" agent="Mozilla/5.0 (Macintosh; Intel Mac OS X 10_15_7) AppleWebKit/537.36 (KHTML, like Gecko) Chrome/131.0.0.0 Safari/537.36" version="25.0.3">
  <diagram name="Page-1" id="VPyLnDZYjEddfBFz_txx">
    <mxGraphModel dx="3305" dy="2360" grid="1" gridSize="10" guides="1" tooltips="1" connect="1" arrows="1" fold="1" page="1" pageScale="1" pageWidth="850" pageHeight="1100" math="0" shadow="0">
      <root>
        <mxCell id="0" />
        <mxCell id="1" parent="0" />
        <mxCell id="vQHX_N-fi60YjF3iRPWU-50" style="edgeStyle=orthogonalEdgeStyle;rounded=0;orthogonalLoop=1;jettySize=auto;html=1;entryX=0;entryY=0.5;entryDx=0;entryDy=0;" edge="1" parent="1" source="vQHX_N-fi60YjF3iRPWU-21" target="vQHX_N-fi60YjF3iRPWU-43">
          <mxGeometry relative="1" as="geometry" />
        </mxCell>
        <mxCell id="vQHX_N-fi60YjF3iRPWU-21" value="Pull specific agent" style="shape=process;whiteSpace=wrap;html=1;backgroundOutline=1;fontStyle=1;fillColor=#e1d5e7;strokeColor=#9673a6;" vertex="1" parent="1">
          <mxGeometry x="-670" y="-325.5" width="120" height="60" as="geometry" />
        </mxCell>
        <mxCell id="vQHX_N-fi60YjF3iRPWU-51" style="edgeStyle=orthogonalEdgeStyle;rounded=0;orthogonalLoop=1;jettySize=auto;html=1;" edge="1" parent="1" source="vQHX_N-fi60YjF3iRPWU-43" target="vQHX_N-fi60YjF3iRPWU-47">
          <mxGeometry relative="1" as="geometry" />
        </mxCell>
        <mxCell id="vQHX_N-fi60YjF3iRPWU-43" value="Agent Data Model" style="whiteSpace=wrap;html=1;aspect=fixed;fontStyle=1" vertex="1" parent="1">
          <mxGeometry x="-490" y="-325.5" width="60" height="60" as="geometry" />
        </mxCell>
        <mxCell id="vQHX_N-fi60YjF3iRPWU-44" value="Custom Extension" style="shape=process;whiteSpace=wrap;html=1;backgroundOutline=1;" vertex="1" parent="1">
          <mxGeometry x="-465" y="-270.5" width="80" height="30" as="geometry" />
        </mxCell>
        <mxCell id="vQHX_N-fi60YjF3iRPWU-45" value="Do custom operation" style="shape=process;whiteSpace=wrap;html=1;backgroundOutline=1;fontStyle=1;fillColor=#e1d5e7;strokeColor=#9673a6;" vertex="1" parent="1">
          <mxGeometry x="-220" y="-325.5" width="120" height="60" as="geometry" />
        </mxCell>
        <mxCell id="vQHX_N-fi60YjF3iRPWU-49" value="True" style="edgeStyle=orthogonalEdgeStyle;rounded=0;orthogonalLoop=1;jettySize=auto;html=1;entryX=0;entryY=0.5;entryDx=0;entryDy=0;fontStyle=1" edge="1" parent="1" source="vQHX_N-fi60YjF3iRPWU-47" target="vQHX_N-fi60YjF3iRPWU-45">
          <mxGeometry x="-0.5059" y="15" relative="1" as="geometry">
            <mxPoint as="offset" />
          </mxGeometry>
        </mxCell>
        <mxCell id="vQHX_N-fi60YjF3iRPWU-47" value="Has Custom Extension" style="rhombus;whiteSpace=wrap;html=1;" vertex="1" parent="1">
          <mxGeometry x="-370" y="-345" width="110" height="100" as="geometry" />
        </mxCell>
      </root>
    </mxGraphModel>
  </diagram>
</mxfile>
